<svg width="36" height="36" viewBox="0 0 36 36" fill="none" xmlns="http://www.w3.org/2000/svg">
<g id="LinkedinLogo">
<path id="Vector" d="M30.375 2.8125H5.625C4.87908 2.8125 4.16371 3.10882 3.63626 3.63626C3.10882 4.16371 2.8125 4.87908 2.8125 5.625V30.375C2.8125 31.1209 3.10882 31.8363 3.63626 32.3637C4.16371 32.8912 4.87908 33.1875 5.625 33.1875H30.375C31.1209 33.1875 31.8363 32.8912 32.3637 32.3637C32.8912 31.8363 33.1875 31.1209 33.1875 30.375V5.625C33.1875 4.87908 32.8912 4.16371 32.3637 3.63626C31.8363 3.10882 31.1209 2.8125 30.375 2.8125ZM29.8125 29.8125H6.1875V6.1875H29.8125V29.8125ZM15.75 24.75V17.4375C15.7503 17.0868 15.8599 16.7449 16.0635 16.4594C16.2671 16.1739 16.5546 15.9588 16.886 15.8442C17.2175 15.7296 17.5764 15.7211 17.9129 15.8199C18.2494 15.9187 18.5467 16.1199 18.7636 16.3955C19.6207 15.9462 20.5792 15.7257 21.5465 15.7552C22.5138 15.7847 23.4571 16.0632 24.2852 16.5639C25.1134 17.0646 25.7983 17.7704 26.2739 18.6132C26.7495 19.456 26.9996 20.4073 27 21.375V24.75C27 25.1976 26.8222 25.6268 26.5057 25.9432C26.1893 26.2597 25.7601 26.4375 25.3125 26.4375C24.8649 26.4375 24.4357 26.2597 24.1193 25.9432C23.8028 25.6268 23.625 25.1976 23.625 24.75V21.375C23.625 20.7783 23.3879 20.206 22.966 19.784C22.544 19.3621 21.9717 19.125 21.375 19.125C20.7783 19.125 20.206 19.3621 19.784 19.784C19.3621 20.206 19.125 20.7783 19.125 21.375V24.75C19.125 25.1976 18.9472 25.6268 18.6307 25.9432C18.3143 26.2597 17.8851 26.4375 17.4375 26.4375C16.9899 26.4375 16.5607 26.2597 16.2443 25.9432C15.9278 25.6268 15.75 25.1976 15.75 24.75ZM13.5 17.4375V24.75C13.5 25.1976 13.3222 25.6268 13.0057 25.9432C12.6893 26.2597 12.2601 26.4375 11.8125 26.4375C11.3649 26.4375 10.9357 26.2597 10.6193 25.9432C10.3028 25.6268 10.125 25.1976 10.125 24.75V17.4375C10.125 16.9899 10.3028 16.5607 10.6193 16.2443C10.9357 15.9278 11.3649 15.75 11.8125 15.75C12.2601 15.75 12.6893 15.9278 13.0057 16.2443C13.3222 16.5607 13.5 16.9899 13.5 17.4375ZM9.5625 11.25C9.5625 10.805 9.69446 10.37 9.94169 9.99997C10.1889 9.62996 10.5403 9.34157 10.9515 9.17127C11.3626 9.00097 11.815 8.95642 12.2515 9.04323C12.6879 9.13005 13.0888 9.34434 13.4035 9.65901C13.7182 9.97368 13.9325 10.3746 14.0193 10.811C14.1061 11.2475 14.0615 11.6999 13.8912 12.111C13.7209 12.5222 13.4325 12.8736 13.0625 13.1208C12.6925 13.368 12.2575 13.5 11.8125 13.5C11.2158 13.5 10.6435 13.2629 10.2215 12.841C9.79955 12.419 9.5625 11.8467 9.5625 11.25Z" fill="#343330"/>
</g>
</svg>
